<svg width="24.000000" height="24.000000" viewBox="0 0 24 24" fill="none" xmlns="http://www.w3.org/2000/svg" xmlns:xlink="http://www.w3.org/1999/xlink">
	<desc>
			Created with Pixso.
	</desc>
	<defs/>
	<path id="Cart" d="M21 18.9667C21 20.9824 19.9351 22 18.1201 22L6.18408 22C4.06494 22 3 20.9922 3 18.9667L3 8.83948C3 6.81409 4.06494 5.80627 6.18408 5.80627L7.79639 5.80627C7.84717 3.75146 9.70312 2 11.9951 2C14.2866 2 16.1426 3.75146 16.1934 5.80627L17.8159 5.80627C19.9253 5.80627 21 6.82385 21 8.83948L21 18.9667ZM9.4292 5.80627C9.47998 4.52441 10.5649 3.4873 11.9951 3.4873C13.4248 3.4873 14.5098 4.52441 14.5605 5.80627L9.4292 5.80627ZM6.20459 20.4247L18.0894 20.4247C18.7891 20.4247 19.3672 19.906 19.3672 18.8884L19.3672 8.91785C19.3672 7.90015 18.7891 7.38159 17.7852 7.38159L6.20459 7.38159C5.19043 7.38159 4.63281 7.90015 4.63281 8.91785L4.63281 18.8884C4.63281 19.906 5.19043 20.4247 6.20459 20.4247Z" clip-rule="evenodd" fill="#1A1A1A" fill-opacity="1.000000" fill-rule="evenodd"/>
</svg>
