<svg width="24.000000" height="24.000000" viewBox="0 0 24 24" fill="none" xmlns="http://www.w3.org/2000/svg" xmlns:xlink="http://www.w3.org/1999/xlink">
	<path id="Favorites" d="M12 21C12.2114 21 12.5137 20.8628 12.7351 20.7354C18.4048 17.2059 22 13.098 22 8.92151C22 5.45093 19.553 3 16.29 3C14.427 3 12.9165 3.86279 12 5.18628C11.1038 3.87256 9.573 3 7.70996 3C4.44702 3 2 5.45093 2 8.92151C2 13.098 5.59521 17.2059 11.2749 20.7354C11.4863 20.8628 11.7886 21 12 21ZM11.7986 19.2255C11.8892 19.2941 11.9597 19.3431 12 19.3431C12.0403 19.3431 12.1108 19.2941 12.2114 19.2255C16.4209 16.5 20.3787 12.5686 20.3787 8.92151C20.3787 6.31372 18.6465 4.57849 16.3101 4.57849C14.427 4.57849 13.3796 5.74512 12.6848 6.70593C12.3928 7.08826 12.2417 7.20593 12 7.20593C11.7583 7.20593 11.5872 7.09802 11.3152 6.70593C10.6707 5.72546 9.58301 4.57849 7.68994 4.57849C5.35352 4.57849 3.62134 6.31372 3.62134 8.92151C3.62134 12.5686 7.5791 16.5 11.7986 19.2255Z" clip-rule="evenodd" fill="#1A1A1A" fill-opacity="1.000000" fill-rule="evenodd"/>
	<path id="Path" d="M12 19.3431C11.9597 19.3431 11.8892 19.2942 11.7986 19.2256C7.5791 16.5 3.62134 12.5687 3.62134 8.92163C3.62134 6.31384 5.35352 4.57849 7.6897 4.57849C9.58301 4.57849 10.6707 5.72559 11.3152 6.70593C11.5872 7.09814 11.7583 7.20593 12 7.20593C12.2417 7.20593 12.3928 7.08826 12.6848 6.70593C13.3796 5.74512 14.427 4.57849 16.3101 4.57849C18.6465 4.57849 20.3787 6.31384 20.3787 8.92163C20.3787 12.5687 16.4209 16.5 12.2114 19.2256C12.1108 19.2942 12.0403 19.3431 12 19.3431Z" fill="#FFFFFF" fill-opacity="1.000000" fill-rule="evenodd"/>
</svg>
