<svg width="24.000000" height="24.000000" viewBox="0 0 24 24" fill="none" xmlns="http://www.w3.org/2000/svg" xmlns:xlink="http://www.w3.org/1999/xlink">
	<path id="Favorites" d="M12 21C12.2115 21 12.5136 20.8628 12.7351 20.7354C18.4048 17.2059 22 13.098 22 8.92151C22 5.45093 19.5529 3 16.29 3C14.427 3 12.9164 3.86279 12 5.18628C11.1037 3.87256 9.57301 3 7.70997 3C4.44713 3 2 5.45093 2 8.92151C2 13.098 5.59517 17.2059 11.2749 20.7354C11.4864 20.8628 11.7885 21 12 21ZM11.7986 19.2255C11.8892 19.2941 11.9597 19.3431 12 19.3431C12.0403 19.3431 12.1108 19.2941 12.2115 19.2255C16.4209 16.5 20.3787 12.5686 20.3787 8.92151C20.3787 6.31372 18.6465 4.57849 16.3102 4.57849C14.427 4.57849 13.3797 5.74512 12.6848 6.70593C12.3927 7.08826 12.2417 7.20593 12 7.20593C11.7583 7.20593 11.5871 7.09802 11.3152 6.70593C10.6707 5.72546 9.58308 4.57849 7.68983 4.57849C5.35347 4.57849 3.62135 6.31372 3.62135 8.92151C3.62135 12.5686 7.57905 16.5 11.7986 19.2255Z" clip-rule="evenodd" fill="#1A1A1A" fill-opacity="1.000000" fill-rule="evenodd"/>
</svg>
