<svg width="117.031006" height="25.648926" viewBox="0 0 117.031 25.6489" fill="none" xmlns="http://www.w3.org/2000/svg" xmlns:xlink="http://www.w3.org/1999/xlink">
	<path id="Vector" d="M2.51599 20.043C1.72302 20.043 1.10303 19.8149 0.656006 19.3589C0.218994 18.895 0 18.2471 0 17.418L0 2.93896C0 2.11011 0.218994 1.46704 0.656982 1.01196C1.10303 0.547119 1.72302 0.313965 2.51599 0.313965L8.01196 0.313965C11.011 0.313965 13.335 1.15796 14.985 2.84399C16.644 4.53003 17.473 6.93604 17.473 10.063C17.473 13.207 16.639 15.6589 14.9709 17.418C13.312 19.168 10.9919 20.043 8.01196 20.043L2.51599 20.043ZM5.01807 15.9961L7.35596 15.9961C8.99597 15.9961 10.241 15.499 11.088 14.5061C11.9449 13.512 12.373 12.0359 12.373 10.0759C12.373 8.23608 11.936 6.82202 11.061 5.83789C10.186 4.85303 8.95105 4.36108 7.35596 4.36108L5.01807 4.36108L5.01807 15.9961ZM32.321 18.3479C30.962 19.7151 29.103 20.3979 26.7419 20.3979C24.382 20.3979 22.522 19.7151 21.1641 18.3479C19.806 16.9709 19.127 15.053 19.127 12.592C19.127 10.177 19.8149 8.27588 21.192 6.89111C22.568 5.49609 24.418 4.79907 26.7419 4.79907C29.085 4.79907 30.9399 5.49194 32.307 6.87695C33.674 8.26196 34.358 10.167 34.358 12.592C34.358 15.062 33.679 16.981 32.321 18.3479ZM24.76 15.7361C25.243 16.4751 25.9041 16.844 26.7419 16.844C27.5811 16.844 28.2419 16.4741 28.725 15.7361C29.208 14.998 29.449 13.9541 29.449 12.606C29.449 11.2749 29.203 10.2361 28.7109 9.48804C28.228 8.73193 27.572 8.354 26.7419 8.354C25.913 8.354 25.257 8.73193 24.774 9.48804C24.291 10.2361 24.049 11.2749 24.049 12.605C24.049 13.9551 24.286 14.998 24.76 15.7361ZM43.203 25.6489C41.608 25.6389 40.2321 25.375 39.074 24.855C37.917 24.3359 37.097 23.6709 36.614 22.8589C36.4048 22.488 36.2963 22.0688 36.299 21.6431C36.299 21.1499 36.472 20.7451 36.819 20.426C37.174 20.106 37.639 19.947 38.213 19.947C38.8151 19.947 39.343 20.1431 39.799 20.5349C40.938 21.4919 42.05 21.9751 43.135 21.9851C44.1281 21.9851 44.903 21.738 45.459 21.2461C46.015 20.7539 46.293 20.084 46.293 19.2361L46.293 16.8579L46.198 16.8579C45.897 17.6499 45.3409 18.293 44.53 18.7849C43.7271 19.2681 42.7841 19.51 41.699 19.51C39.8669 19.51 38.423 18.863 37.365 17.5681C36.308 16.2739 35.78 14.501 35.78 12.25C35.78 9.92603 36.299 8.12598 37.338 6.8501C38.386 5.57397 39.863 4.93604 41.7681 4.93604C42.825 4.93604 43.746 5.19604 44.53 5.71509C45.2943 6.21167 45.8864 6.93262 46.225 7.77905L46.321 7.77905L46.321 7.27295C46.321 6.47095 46.5439 5.86499 46.99 5.45508C47.446 5.04492 48.0391 4.84009 48.7681 4.84009C49.4969 4.84009 50.076 5.04492 50.504 5.45508C50.942 5.86499 51.16 6.47095 51.16 7.27393L51.16 19.3181C51.16 21.333 50.468 22.8911 49.082 23.9939C47.7061 25.0969 45.746 25.6479 43.203 25.6479L43.203 25.6489ZM43.531 16.0791C44.406 16.0791 45.09 15.7549 45.582 15.1079C46.084 14.4509 46.334 13.5259 46.334 12.332C46.334 11.147 46.084 10.208 45.582 9.51611C45.0811 8.81396 44.397 8.46289 43.531 8.46289C42.666 8.46289 41.9821 8.80908 41.481 9.50195C40.989 10.1951 40.7419 11.1379 40.7419 12.332C40.7419 13.5259 40.984 14.4519 41.467 15.1079C41.959 15.7549 42.647 16.0779 43.531 16.0779L43.531 16.0791ZM58.201 19.6599C57.764 20.116 57.149 20.344 56.356 20.344C55.563 20.344 54.943 20.116 54.496 19.6599C54.059 19.2041 53.84 18.562 53.84 17.7329L53.84 2.93994C53.84 2.11011 54.059 1.46704 54.496 1.01196C54.943 0.547119 55.563 0.313965 56.356 0.313965L65.297 0.313965C65.981 0.313965 66.5229 0.491943 66.924 0.8479C67.325 1.20288 67.526 1.69995 67.526 2.33789C67.526 2.96704 67.321 3.46411 66.91 3.82788C66.509 4.18408 65.972 4.36108 65.297 4.36108L58.858 4.36108L58.858 8.84595L64.655 8.84595C65.293 8.84595 65.798 9.01904 66.172 9.36597C66.5551 9.70288 66.746 10.1721 66.746 10.7729C66.746 11.375 66.559 11.844 66.186 12.1819C65.812 12.519 65.302 12.687 64.655 12.687L58.858 12.687L58.858 17.7329C58.858 18.562 58.639 19.2041 58.201 19.6599ZM81.5391 18.3479C80.181 19.7151 78.322 20.3979 75.9611 20.3979C73.6 20.3979 71.741 19.7151 70.3831 18.3479C69.025 16.9709 68.3459 15.053 68.3459 12.592C68.3459 10.177 69.0339 8.27588 70.41 6.89111C71.787 5.49609 73.637 4.79907 75.9611 4.79907C78.304 4.79907 80.158 5.49194 81.526 6.87695C82.8931 8.26196 83.576 10.167 83.576 12.592C83.576 15.062 82.897 16.981 81.5391 18.3479ZM73.979 15.7361C74.462 16.4751 75.123 16.844 75.9611 16.844C76.8 16.844 77.4611 16.4741 77.944 15.7361C78.427 14.998 78.668 13.9541 78.668 12.606C78.668 11.2749 78.422 10.2361 77.9301 9.48804C77.447 8.73193 76.791 8.354 75.9611 8.354C75.132 8.354 74.475 8.73193 73.9919 9.48804C73.509 10.2361 73.2679 11.2749 73.2679 12.605C73.2679 13.9551 73.505 14.998 73.979 15.7361ZM98.192 18.3479C96.834 19.7151 94.974 20.3979 92.614 20.3979C90.2531 20.3979 88.3929 19.7151 87.035 18.3479C85.677 16.9709 84.998 15.053 84.998 12.592C84.998 10.177 85.686 8.27588 87.063 6.89111C88.439 5.49609 90.2891 4.79907 92.614 4.79907C94.9561 4.79907 96.811 5.49194 98.178 6.87695C99.545 8.26196 100.229 10.167 100.229 12.592C100.229 15.062 99.55 16.981 98.192 18.3479ZM90.631 15.7361C91.114 16.4751 91.775 16.844 92.614 16.844C93.452 16.844 94.113 16.4741 94.5959 15.7361C95.079 14.998 95.321 13.9541 95.321 12.606C95.321 11.2749 95.074 10.2361 94.582 9.48804C94.099 8.73193 93.443 8.354 92.614 8.354C91.7841 8.354 91.1281 8.73193 90.645 9.48804C90.162 10.2361 89.92 11.2749 89.92 12.605C89.92 13.9551 90.157 14.998 90.631 15.7361ZM107.584 20.262C105.734 20.262 104.28 19.582 103.223 18.2251C102.175 16.8579 101.651 14.9709 101.651 12.5649C101.651 10.1851 102.184 8.32202 103.25 6.9729C104.317 5.61499 105.78 4.93604 107.639 4.93604C108.696 4.93604 109.617 5.19604 110.401 5.71509C111.171 6.20581 111.764 6.92871 112.096 7.77905L112.192 7.77905L112.192 2.51611C112.192 1.69604 112.41 1.07104 112.848 0.643066C113.285 0.214111 113.873 0 114.612 0C115.35 0 115.938 0.214111 116.375 0.643066C116.813 1.07104 117.031 1.69507 117.031 2.51611L117.031 17.8689C117.031 18.6799 116.813 19.3 116.375 19.729C115.938 20.1479 115.35 20.3579 114.612 20.3579C113.882 20.3579 113.295 20.1479 112.848 19.728C112.41 19.3 112.192 18.6799 112.192 17.8689L112.192 17.4451L112.096 17.4451C111.804 18.2749 111.253 18.9541 110.442 19.4829C109.64 20.002 108.687 20.262 107.584 20.262ZM107.352 15.449C107.844 16.1331 108.528 16.4751 109.403 16.4751C110.278 16.4751 110.961 16.1331 111.453 15.449C111.955 14.7661 112.205 13.8181 112.205 12.606C112.205 11.4109 111.955 10.468 111.453 9.77588C110.952 9.07397 110.268 8.7229 109.403 8.7229C108.537 8.7229 107.853 9.06909 107.352 9.76196C106.86 10.4541 106.614 11.4021 106.614 12.605C106.614 13.8091 106.86 14.7571 107.352 15.449Z" fill="#1A1A1A" fill-opacity="1.000000" fill-rule="nonzero"/>
</svg>
