<svg width="24.000000" height="24.000000" viewBox="0 0 24 24" fill="none" xmlns="http://www.w3.org/2000/svg" xmlns:xlink="http://www.w3.org/1999/xlink">
	<path id="Trash" d="M16.2676 22C17.5972 22 18.4897 21.1648 18.5547 19.8806L19.1963 6.82263L20.312 6.82263C20.6931 6.82263 21 6.5083 21 6.14014C21 5.77185 20.6931 5.46655 20.312 5.46655L16.063 5.46655L16.063 4.11938C16.063 2.82617 15.1611 2 13.7292 2L10.252 2C8.82031 2 7.92773 2.82617 7.92773 4.11938L7.92773 5.46655L3.68799 5.46655C3.31616 5.46655 3 5.78088 3 6.14014C3 6.5083 3.31616 6.82263 3.68799 6.82263L4.81299 6.82263L5.45459 19.8895C5.51953 21.1738 6.39355 22 7.7417 22L16.2676 22ZM9.41528 5.46655L14.5847 5.46655L14.5847 4.20923C14.5847 3.69739 14.1943 3.33813 13.627 3.33813L10.3635 3.33813C9.79639 3.33813 9.41528 3.69739 9.41528 4.20923L9.41528 5.46655ZM16.1189 20.6439L7.87183 20.6439C7.34204 20.6439 6.94214 20.2577 6.91431 19.7279L6.26343 6.82263L17.7087 6.82263L17.095 19.7279C17.0671 20.2667 16.6768 20.6439 16.1189 20.6439ZM9.24805 19.0723C9.56396 19.0723 9.79639 18.8119 9.78711 18.4796L9.49902 9.06775C9.48975 8.74451 9.24805 8.48401 8.95972 8.48401C8.64355 8.48401 8.41113 8.73547 8.42041 9.06775L8.69946 18.4885C8.70874 18.8298 8.93188 19.0723 9.24805 19.0723ZM12.5671 18.4885C12.5671 18.8119 12.3069 19.0723 12 19.0723C11.7024 19.0723 11.4421 18.8119 11.4421 18.4885L11.4421 9.06775C11.4421 8.74451 11.7024 8.48401 12 8.48401C12.3069 8.48401 12.5671 8.74451 12.5671 9.06775L12.5671 18.4885ZM15.3005 18.4885C15.2913 18.8298 15.0681 19.0723 14.7615 19.0723C14.4453 19.0723 14.2129 18.8119 14.2222 18.4796L14.501 9.06775C14.5103 8.74451 14.752 8.48401 15.0403 8.48401C15.3564 8.48401 15.5889 8.73547 15.5796 9.06775L15.3005 18.4885Z" clip-rule="evenodd" fill="#1A1A1A" fill-opacity="1.000000" fill-rule="evenodd"/>
</svg>
