<svg width="18.000000" height="24.000000" viewBox="0 0 18 24" fill="none" xmlns="http://www.w3.org/2000/svg" xmlns:xlink="http://www.w3.org/1999/xlink">
	<path id="Vector" d="M9.70599 12.5703C11.4944 12.1406 12.3271 14.3481 10.5339 14.8049C8.70319 15.2708 7.76508 13.0354 9.70599 12.5703ZM8.83691 21.9895L8.8714 21.9612C9.08624 22.0325 9.52142 23.4434 11.0677 23.8608C13.0854 24.4058 15.4191 23.301 16.6356 21.416C16.9842 20.8752 18.0724 18.9392 17.1488 18.5564C16.3409 18.2219 16.0213 20.1021 15.5105 20.8674C14.9622 21.6882 14.0108 22.3247 13.0588 22.5486C9.81494 23.312 9.46814 20.5098 9.4978 18.0354C11.1155 17.551 12.8664 15.4626 12.7599 13.6985C12.6279 11.5146 9.58374 10.8418 7.84924 11.1836C5.56274 11.635 4.27063 13.1885 5.44653 15.5012C6.77197 18.105 8.21112 17.5957 8.27649 18.353C8.51251 21.0754 6.91962 24.0984 3.55408 22.0869C2.74371 21.6023 2.18994 20.8892 1.78625 20.0422C1.63617 19.7275 1.4032 18.822 1.27063 18.6797C0.889954 18.2739 0.213318 18.5842 0.235107 19.2012C0.292603 20.8306 2.08099 22.917 3.54865 23.5225C5.57001 24.3574 7.8244 24.1577 8.83691 21.9902L8.83691 21.9895ZM12.6776 9.56836C12.2122 8.4873 11.7619 7.41162 12.4845 6.25073C13.1502 5.18164 14.4254 5.14355 15.3683 5.87744C17.3425 7.41235 17.3401 11.2278 14.8478 11.0615C16.2137 10.6174 16.6247 9.17749 15.982 7.91675L14.5095 9.03247L14.9991 7.13696C13.264 6.7063 12.637 8.09888 12.6776 9.56787L12.6776 9.56836ZM13.4462 4.12793C8.92529 5.04736 11.0363 13.123 15.4821 12.335C19.9848 11.5364 17.9193 3.21802 13.4462 4.12793ZM3.72778 8.87451L2.30798 7.76978C1.89099 8.20728 1.85529 9.03906 2.02954 9.59741C2.23718 10.2622 2.50165 10.4407 3.01605 10.8032C0.505676 10.5957 0.871216 7.36035 2.3219 5.86646C3.06628 5.10059 4.26459 4.80176 5.14697 5.54175C6.09534 6.33545 5.86536 7.67236 5.62329 8.70264C5.22687 8.04321 5.32611 7.21436 4.12598 6.96338C2.79028 6.68457 3.38763 7.22827 3.72778 8.87451ZM3.51294 3.85376C-1.18347 4.63062 -1.16351 12.8376 3.52808 12.0754C8.20752 11.3142 8.18634 3.0813 3.51294 3.85376ZM12.0209 0.0280762C11.3467 0.136963 11.2511 0.931152 11.6838 1.21924C12.1226 1.51074 13.2319 0.895508 14.3994 2.63232C14.6862 3.05957 14.8073 3.7334 15.395 3.66016C17.0066 3.45947 14.4472 -0.362793 12.0209 0.0280762ZM4.3844 0.0424805C3.34711 0.191895 2.49615 0.836182 1.89581 1.66992C0.431213 3.70801 1.89886 4.00513 2.31403 3.38916C2.8811 2.54834 3.18005 1.61963 4.36206 1.35962C4.85223 1.25195 5.7431 1.5083 5.69952 0.639648C5.66321 -0.0754395 4.90247 -0.0319824 4.38385 0.0432129L4.3844 0.0424805Z" fill="#222327" fill-opacity="1.000000" fill-rule="evenodd"/>
</svg>
